<svg width="656" height="525" viewBox="0 0 656 525" fill="none" xmlns="http://www.w3.org/2000/svg">
<path d="M568.604 294.028C568.604 300.151 568.604 306.203 568.604 312.396C557.777 312.396 547.162 312.396 536.193 312.396C536.193 306.273 536.193 300.221 536.193 294.028C546.808 294.028 557.635 294.028 568.604 294.028Z" fill="#BAC9DE"/>
<path d="M568.958 212.463C557.706 212.463 547.091 212.463 536.052 212.463C536.052 206.904 536.052 201.344 536.052 195.362C545.817 193.814 556.008 192.195 566.764 190.506C567.472 197.755 568.25 205.003 568.958 212.463Z" fill="#BAC9DE"/>
<path d="M289.574 453.147C289.574 450.613 289.574 448.221 289.574 445.828C314.201 445.828 338.686 445.828 363.383 445.828C363.383 448.432 363.383 450.684 363.383 453.147C338.827 453.147 314.272 453.147 289.574 453.147Z" fill="#BAC9DE"/>
<path d="M559.758 165.593C562.518 172.983 564.641 180.231 566.056 188.043C555.866 189.662 545.817 191.28 535.698 192.828C534.919 187.128 534.141 181.498 533.362 175.727C538.387 173.827 543.694 171.857 548.931 169.956" fill="#BAC9DE"/>
<path d="M121.788 351.454C113.083 354.903 104.45 358.422 95.5335 362.011C91.9245 354.481 89.2354 346.81 87.2539 338.646C97.515 337.027 107.776 335.409 117.966 333.79C119.24 339.702 120.443 345.332 121.788 351.454Z" fill="#BAC9DE"/>
<path d="M196.941 105.845C190.006 107.111 183.425 108.8 176.844 111.404C173.306 103.593 169.838 95.7809 166.3 87.7581C174.65 84.2393 183.354 81.9873 192.412 80.2279C193.828 88.7433 195.455 97.1884 196.941 105.845Z" fill="#BAC9DE"/>
<path d="M536.264 231.465C536.264 225.975 536.264 220.627 536.264 215.137C546.879 215.137 557.635 215.137 568.533 215.137C568.533 220.556 568.533 225.975 568.533 231.465C557.777 231.465 547.02 231.465 536.264 231.465Z" fill="#BAC9DE"/>
<path d="M568.604 273.197C568.604 279.32 568.604 285.302 568.604 291.213C557.706 291.213 546.879 291.213 535.91 291.213C535.91 285.161 535.91 279.179 535.91 273.197C546.808 273.197 557.635 273.197 568.604 273.197Z" fill="#BAC9DE"/>
<path d="M536.406 315C547.021 315 557.565 315 568.534 315C567.118 322.53 565.774 329.92 564.429 337.379C554.734 334.916 545.252 332.594 535.557 330.131C535.698 325.134 535.981 320.137 536.406 315Z" fill="#BAC9DE"/>
<path d="M442.428 77.9758C449.576 78.0462 456.652 78.9611 463.729 80.5797C462.384 89.2359 461.04 97.6809 459.624 106.267C453.892 105.422 448.16 104.648 442.357 103.663C442.428 95.2882 442.428 86.8431 442.428 77.9758Z" fill="#BAC9DE"/>
<path d="M548.294 142.44C552.399 149.196 555.866 155.952 558.768 163.341C550.063 166.649 541.501 169.956 532.726 173.334C530.249 167.704 527.843 162.215 525.366 156.444C532.938 151.8 540.51 147.155 548.294 142.44Z" fill="#BAC9DE"/>
<path d="M141.532 135.121C135.234 129.42 129.077 123.72 122.779 118.019C128.228 111.967 134.173 106.689 140.754 101.903C145.849 108.871 150.944 115.767 156.039 122.805C150.873 126.394 145.849 130.124 141.532 135.121Z" fill="#BAC9DE"/>
<path d="M535.273 332.735C544.685 335.057 554.026 337.45 563.65 339.843C561.669 346.669 559.687 353.214 557.706 360.111C548.789 356.592 540.085 353.214 531.664 349.906C533.009 344.065 534.212 338.435 535.273 332.735Z" fill="#BAC9DE"/>
<path d="M568.674 233.998C568.674 239.487 568.674 244.836 568.674 250.325C557.847 250.325 547.162 250.325 536.264 250.325C536.264 244.906 536.264 239.558 536.264 233.998C546.949 233.998 557.706 233.998 568.674 233.998Z" fill="#BAC9DE"/>
<path d="M498.192 122.875C492.885 119.708 487.79 116.682 482.482 113.515C485.384 105.915 488.427 98.1735 491.47 90.1508C499.042 93.5991 505.906 97.9624 512.558 103.17C507.746 109.856 502.934 116.401 498.192 122.875Z" fill="#BAC9DE"/>
<path d="M556.645 362.363C554.097 368.978 551.267 375.1 547.233 380.942C539.661 376.297 532.089 371.793 524.588 367.218C526.64 362.222 528.622 357.366 530.674 352.229C539.307 355.607 547.87 358.914 556.645 362.363Z" fill="#BAC9DE"/>
<path d="M480.147 112.53C474.061 110.56 468.258 108.66 462.243 106.759C463.588 98.4551 464.932 89.8693 466.277 81.2131C474.273 83.0429 481.704 85.5764 489.205 89.0248C486.233 96.9068 483.19 104.648 480.147 112.53Z" fill="#BAC9DE"/>
<path d="M129.784 370.385C122.708 374.96 115.49 379.534 107.988 384.461C104.025 377.775 100.275 371.3 96.2412 364.474C105.299 360.885 113.933 357.366 122.425 353.988C124.972 359.477 127.378 364.826 129.784 370.385Z" fill="#BAC9DE"/>
<path d="M142.947 100.355C149.599 95.7104 156.464 91.9806 163.752 88.7433C167.291 96.6957 170.758 104.507 174.226 112.108C168.848 115.064 163.469 118.09 158.02 121.046C153.138 114.219 148.113 107.393 142.947 100.355Z" fill="#BAC9DE"/>
<path d="M214.845 103.733C209.75 104.226 204.655 104.719 199.418 105.211C197.932 96.7661 196.446 88.3211 194.818 79.5242C201.612 78.8908 208.122 78.3278 214.774 77.7648C214.845 86.6321 214.845 95.0771 214.845 103.733Z" fill="#BAC9DE"/>
<path d="M524.163 154.052C520.766 149.125 517.511 144.41 514.114 139.484C520.342 133.854 526.64 128.013 533.15 122.172C538.245 127.802 542.845 133.713 546.95 140.188C539.236 144.903 531.664 149.548 524.163 154.052Z" fill="#BAC9DE"/>
<path d="M523.526 369.611C530.886 374.115 538.175 378.549 545.959 383.264C541.218 388.965 536.618 394.595 531.947 400.295C525.791 394.735 519.775 389.457 513.973 384.179C517.157 379.253 520.271 374.538 523.526 369.611Z" fill="#BAC9DE"/>
<path d="M442.641 420.141C448.231 419.367 453.68 418.663 459.341 417.889C460.332 425.348 461.464 432.949 462.597 440.972C455.874 441.676 449.363 442.379 442.641 443.153C442.641 435.271 442.641 427.741 442.641 420.141Z" fill="#BAC9DE"/>
<path d="M120.798 119.708C127.379 125.69 133.465 131.25 139.551 136.81C136.083 141.595 132.616 146.31 129.148 151.096C122.142 146.733 114.995 142.299 107.423 137.584C112.023 131.532 116.41 125.69 120.798 119.708Z" fill="#BAC9DE"/>
<path d="M500.244 124.494C504.985 118.09 509.727 111.474 514.822 104.507C520.412 109.715 525.932 114.782 531.593 120.06C524.941 126.113 518.714 131.743 512.416 137.443C508.453 133.15 504.419 128.928 500.244 124.494Z" fill="#BAC9DE"/>
<path d="M199.065 418.874C205.292 419.648 211.236 420.493 217.464 421.337C217.464 428.234 217.464 435.201 217.464 442.661C210.741 441.957 204.018 441.253 197.225 440.55C197.791 433.16 198.428 426.052 199.065 418.874Z" fill="#BAC9DE"/>
<path d="M513.123 417.678C508.925 411.062 504.891 404.658 501.022 398.465C505.198 394.454 509.231 390.442 513.477 386.361C518.856 391.216 524.658 396.424 530.744 401.843C525.295 407.684 519.422 412.751 513.123 417.678Z" fill="#BAC9DE"/>
<path d="M535.91 260.529C535.91 257.926 535.91 255.603 535.91 253.07C546.808 253.07 557.635 253.07 568.604 253.07C568.604 255.603 568.604 257.926 568.604 260.529C557.753 260.529 546.855 260.529 535.91 260.529Z" fill="#BAC9DE"/>
<path d="M535.91 270.593C535.91 268.13 535.91 265.878 535.91 263.556C546.808 263.556 557.706 263.556 568.675 263.556C568.675 265.878 568.675 268.271 568.675 270.593C557.706 270.593 546.879 270.593 535.91 270.593Z" fill="#BAC9DE"/>
<path d="M102.753 138.851C99.4973 136.95 96.3836 135.191 93.0576 133.291C94.9447 130.288 96.8554 127.262 98.7897 124.213C102.045 126.394 105.088 128.435 108.202 130.546C106.362 133.291 104.663 135.965 102.753 138.851Z" fill="#BAC9DE"/>
<path d="M512.7 98.5958C509.869 96.6957 507.251 94.9363 504.42 93.1066C506.189 90.2212 507.817 87.3358 509.657 84.2393C512.912 86.1394 515.955 87.8988 519.352 89.9397C517.087 92.8251 514.964 95.6401 512.7 98.5958Z" fill="#BAC9DE"/>
<path d="M77.1349 167.704C80.6732 168.83 83.8577 169.745 87.2545 170.731C86.4053 173.898 85.4853 176.924 84.5654 180.161C81.3101 179.246 78.1257 178.19 74.5166 177.205C75.3658 174.109 76.215 171.012 77.1349 167.704Z" fill="#BAC9DE"/>
<path d="M581.554 332.664C580.846 335.55 580.209 338.224 579.502 341.109C575.609 340.194 571.859 339.209 567.825 338.294C568.391 335.55 569.028 332.875 569.594 330.06C573.628 330.905 577.52 331.749 581.554 332.664Z" fill="#BAC9DE"/>
<path d="M555.3 122.805C551.833 125.409 548.436 127.872 544.968 130.546C543.341 128.505 541.784 126.535 540.156 124.424C543.553 121.89 546.879 119.427 550.347 116.753C551.974 118.794 553.673 120.764 555.3 122.805Z" fill="#BAC9DE"/>
<path d="M528.976 112.038C531.594 109.293 534.212 106.478 537.043 103.381C539.166 105.352 541.218 107.252 543.412 109.293C540.369 112.108 537.397 114.853 534.425 117.597C532.585 115.697 530.816 113.938 528.976 112.038Z" fill="#BAC9DE"/>
<path d="M575.256 159.752C576.105 162.567 576.884 165.171 577.804 167.915C573.699 169.042 569.807 170.027 565.844 171.153C565.066 168.901 564.287 166.649 563.509 164.326C567.401 162.778 571.152 161.371 575.256 159.752Z" fill="#BAC9DE"/>
<path d="M567.331 340.828C571.223 341.743 574.903 342.728 578.724 343.643C578.795 345.191 578.158 346.106 577.167 346.458C577.096 348.428 576.955 350.258 576.884 352.44C572.85 351.032 569.241 349.836 565.42 348.499C565.986 345.895 566.623 343.361 567.331 340.828Z" fill="#BAC9DE"/>
<path d="M181.798 70.7976C182.435 73.683 183.001 76.4276 183.567 79.1723C180.099 80.0872 176.844 81.002 173.447 81.9169C172.527 79.2427 171.466 76.5684 170.404 73.6126C174.296 72.6274 177.976 71.7125 181.798 70.7976Z" fill="#BAC9DE"/>
<path d="M124.901 96.2735C127.52 94.3734 129.997 92.614 132.615 90.7139C134.738 93.5993 136.79 96.3439 138.842 99.1589C136.578 100.918 134.313 102.537 132.119 104.226C129.784 101.622 127.449 99.0182 124.901 96.2735Z" fill="#BAC9DE"/>
<path d="M556.998 124.916C558.484 127.098 559.9 129.139 561.527 131.32C557.847 133.572 554.168 135.824 550.417 138.147C549.143 136.317 547.94 134.628 546.596 132.658C550.063 130.054 553.46 127.45 556.998 124.916Z" fill="#BAC9DE"/>
<path d="M559.192 154.192C558.201 152.151 557.21 150.251 556.22 148.21C560.112 146.381 563.933 144.621 568.038 142.721C569.17 144.973 570.161 147.225 571.364 149.548C567.259 151.025 563.296 152.574 559.192 154.192Z" fill="#BAC9DE"/>
<path d="M562.872 133.572C564.217 135.895 565.491 138.076 566.765 140.328C562.731 142.229 558.91 143.988 554.947 145.818C553.814 143.988 552.894 142.299 551.691 140.399C555.371 138.147 559.122 135.895 562.872 133.572Z" fill="#BAC9DE"/>
<path d="M526.853 110.278C524.871 108.448 522.96 106.83 521.05 105.07C523.668 102.255 526.286 99.5107 528.905 96.6957C530.957 98.3143 532.868 99.9329 534.991 101.622C532.302 104.578 529.612 107.393 526.853 110.278Z" fill="#BAC9DE"/>
<path d="M100.275 396.917C103.035 394.946 105.583 393.046 108.272 391.217C110.112 393.539 111.81 395.861 113.65 398.254C111.103 400.365 108.697 402.406 106.078 404.517C104.168 401.914 102.257 399.45 100.275 396.917Z" fill="#BAC9DE"/>
<path d="M582.121 330.131C578.016 329.216 574.124 328.301 570.161 327.456C570.586 325.204 570.94 323.093 571.364 320.841C575.539 321.334 579.573 321.686 583.819 322.178C583.253 324.923 582.687 327.456 582.121 330.131Z" fill="#BAC9DE"/>
<path d="M584.526 293.958C584.526 296.421 584.526 298.743 584.526 301.206C580.634 301.206 576.812 301.206 572.85 301.206C572.85 298.884 572.85 296.491 572.85 293.958C576.577 293.958 580.469 293.958 584.526 293.958Z" fill="#BAC9DE"/>
<path d="M376.616 75.2313C373.007 75.2313 369.469 75.2313 365.789 75.2313C365.789 72.4866 365.789 69.8828 365.789 67.2085C369.398 67.2085 372.936 67.2085 376.616 67.2085C376.616 69.8828 376.616 72.4866 376.616 75.2313Z" fill="#BAC9DE"/>
<path d="M136.649 431.471C138.489 428.938 140.188 426.615 142.028 424.082C144.646 425.56 147.123 426.967 149.741 428.445C148.397 431.19 147.123 433.794 145.707 436.609C142.735 434.849 139.763 433.231 136.649 431.471Z" fill="#BAC9DE"/>
<path d="M584.031 260.53C580.21 260.53 576.459 260.53 572.638 260.53C572.638 258.066 572.638 255.603 572.638 252.999C576.318 252.999 580.139 252.999 584.031 252.999C584.031 255.533 584.031 257.996 584.031 260.53Z" fill="#BAC9DE"/>
<path d="M572.708 212.393C572.567 209.859 572.425 207.607 572.213 205.074C576.034 204.863 579.785 204.511 583.748 204.3C583.748 207.115 583.748 209.718 583.748 212.393C579.997 212.393 576.388 212.393 572.708 212.393Z" fill="#BAC9DE"/>
<path d="M505.48 426.545C507.674 425.067 509.656 423.73 511.849 422.252C513.76 425.278 515.671 428.234 517.652 431.401C515.317 432.879 512.982 434.357 510.576 436.046C508.806 432.738 507.108 429.712 505.48 426.545Z" fill="#BAC9DE"/>
<path d="M532.655 404.517C535.344 406.84 538.033 409.373 540.793 411.837C538.882 413.807 537.184 415.707 535.273 417.748C532.584 414.863 530.036 412.259 527.56 409.514C529.187 407.825 530.886 406.206 532.655 404.517Z" fill="#BAC9DE"/>
<path d="M80.1781 213.448C80.0366 216.334 79.8951 219.078 79.612 221.893C76.3568 221.893 73.2431 221.893 70.0586 221.893C70.0586 219.078 70.0586 216.334 70.0586 213.448C73.5261 213.448 76.7106 213.448 80.1781 213.448Z" fill="#BAC9DE"/>
<path d="M572.921 242.513C576.601 242.513 580.068 242.513 583.819 242.513C583.819 245.094 583.819 247.698 583.819 250.325C580.281 250.325 576.671 250.325 572.921 250.325C572.921 247.838 572.921 245.235 572.921 242.513Z" fill="#BAC9DE"/>
<path d="M377.112 445.687C377.112 448.361 377.112 450.895 377.112 453.499C373.503 453.499 370.035 453.499 366.355 453.499C366.355 450.871 366.355 448.267 366.355 445.687C369.823 445.687 373.432 445.687 377.112 445.687Z" fill="#BAC9DE"/>
<path d="M183.284 449.769C183.992 446.813 184.558 444.139 185.266 441.183C188.238 441.746 191.21 442.379 194.324 442.942C194.111 445.757 193.828 448.572 193.545 451.669C190.078 451.036 186.752 450.402 183.284 449.769Z" fill="#BAC9DE"/>
<path d="M585.164 312.326C584.952 314.789 584.668 317.041 584.456 319.645C580.139 319.152 575.964 318.8 571.789 318.308C572.072 316.267 572.355 314.367 572.567 312.326C576.601 312.326 580.635 312.326 585.164 312.326Z" fill="#BAC9DE"/>
<path d="M513.973 420.633C515.813 419.226 517.44 418.03 519.068 416.692C521.615 419.367 523.951 421.971 526.569 424.715C524.305 426.475 522.04 428.164 519.775 429.993C517.865 426.756 515.954 423.8 513.973 420.633Z" fill="#BAC9DE"/>
<path d="M89.5188 358.351C86.6881 359.618 84.0698 360.674 81.3099 361.94C80.1777 358.985 79.1869 356.17 78.0547 353.003C80.8146 352.017 83.5037 351.032 86.3343 349.977C87.4665 352.862 88.3865 355.536 89.5188 358.351Z" fill="#BAC9DE"/>
<path d="M117.118 103.241C119.736 105.493 122.426 107.956 125.185 110.349C123.345 112.249 121.789 113.797 120.161 115.416C117.401 112.882 114.783 110.489 111.952 107.885C113.863 106.196 115.703 104.578 117.118 103.241Z" fill="#BAC9DE"/>
<path d="M572.85 224.005C576.529 224.005 580.138 224.005 583.818 224.005C583.818 226.538 583.818 228.931 583.818 231.464C580.138 231.464 576.529 231.464 572.85 231.464C572.85 228.861 572.85 226.468 572.85 224.005Z" fill="#BAC9DE"/>
<path d="M558.485 368.063C562.094 369.541 565.491 370.948 569.1 372.426C567.897 374.96 566.835 377.212 565.632 379.745C562.236 377.634 559.051 375.664 555.796 373.623C556.645 371.863 557.494 370.104 558.485 368.063Z" fill="#BAC9DE"/>
<path d="M141.107 97.681C139.055 94.9363 137.073 92.1917 134.95 89.3063C137.285 87.8988 139.621 86.5617 142.098 85.1542C144.008 87.9692 145.707 90.7138 147.617 93.5288C145.424 94.866 143.301 96.2735 141.107 97.681Z" fill="#BAC9DE"/>
<path d="M580.422 178.824C580.847 181.076 581.2 183.187 581.625 185.58C577.662 186.213 573.911 186.847 570.019 187.41C569.524 185.228 569.099 183.187 568.533 180.724C572.496 180.09 576.388 179.527 580.422 178.824Z" fill="#BAC9DE"/>
<path d="M480.854 443.716L480.996 443.998C481.491 445.476 481.915 446.813 482.411 448.361C478.943 449.206 475.688 450.121 472.008 451.036L471.301 447.939C471.301 447.939 470.947 446.391 470.593 445.124L469.956 441.816C473.282 440.831 476.183 439.916 479.368 439.001C479.863 440.338 480.217 441.676 480.783 443.224" fill="#BAC9DE"/>
<path d="M277.402 75.3016C274.147 75.3016 271.175 75.3016 267.99 75.3016C267.99 72.6273 267.99 70.0234 267.99 67.2788C271.175 67.2788 274.218 67.2788 277.402 67.2788C277.402 69.8827 277.402 72.4866 277.402 75.3016Z" fill="#BAC9DE"/>
<path d="M562.519 357.436C563.226 355.184 563.863 353.143 564.571 350.891C568.251 352.158 571.86 353.425 575.681 354.762C574.973 356.873 574.336 358.914 573.558 361.166C569.737 359.97 566.198 358.774 562.519 357.436Z" fill="#BAC9DE"/>
<path d="M80.1777 317.674C76.9225 317.674 73.9503 317.674 70.8366 317.674C70.6951 315 70.5536 312.326 70.2705 309.651C73.5257 309.651 76.4979 309.651 79.6824 309.651C79.8947 312.326 80.0362 314.93 80.1777 317.674Z" fill="#BAC9DE"/>
<path d="M564.359 382.208C563.085 384.179 562.023 386.009 560.82 387.909C557.494 385.868 554.381 383.968 551.055 381.927C552.258 379.956 553.39 378.056 554.593 376.015C557.848 378.127 561.033 380.097 564.359 382.208Z" fill="#BAC9DE"/>
<path d="M88.2455 168.408C84.8487 167.423 81.5935 166.367 78.126 165.382C79.0459 162.919 79.9659 160.667 80.8859 158.274C84.3534 159.541 87.6086 160.808 90.9346 162.074C90.0147 164.045 89.1655 166.156 88.2455 168.408Z" fill="#BAC9DE"/>
<path d="M471.655 70.2345C471.159 73.1903 470.735 75.9349 470.31 78.8203C467.338 78.1635 464.366 77.5301 461.394 76.9202C461.818 74.2459 462.243 71.5717 462.738 68.6863C465.64 69.1085 468.47 69.6715 471.655 70.2345Z" fill="#BAC9DE"/>
<path d="M69.9873 289.243C69.9873 286.357 69.9873 283.683 69.9873 280.938C73.0067 280.938 76.1204 280.938 79.3284 280.938C79.3284 283.753 79.3284 286.428 79.3284 289.243C76.2147 289.243 73.2425 289.243 69.9873 289.243Z" fill="#BAC9DE"/>
<path d="M71.6152 196.136C71.8983 193.462 72.2521 190.928 72.606 188.113C76.0735 188.536 79.3995 188.958 82.7962 189.38C82.5132 191.702 82.1594 193.884 81.8763 196.136C78.4795 196.136 75.1535 196.136 71.6152 196.136Z" fill="#BAC9DE"/>
<path d="M423.25 445.617C426.576 445.617 429.832 445.617 433.158 445.617C433.158 448.221 433.158 450.824 433.158 453.569C429.902 453.569 426.718 453.569 423.392 453.569C423.392 451.927 423.392 450.308 423.392 448.713C423.534 448.713 423.675 448.713 423.887 448.713C423.958 449.698 424.1 450.754 424.17 451.739C424.312 451.739 424.595 451.739 424.737 451.669C424.737 450.191 424.737 448.713 424.737 447.024C424.17 447.306 423.746 447.587 423.18 447.939C423.25 447.165 423.25 446.532 423.25 445.617Z" fill="#BAC9DE"/>
<path d="M572.708 363.7C571.859 365.881 571.081 367.922 570.161 370.034C566.552 368.556 563.084 367.148 559.546 365.67C560.254 363.77 560.961 361.87 561.669 359.9C565.278 361.166 568.816 362.363 572.708 363.7Z" fill="#BAC9DE"/>
<path d="M85.0605 148.562C86.0513 146.451 87.042 144.551 87.962 142.51C91.3587 144.129 94.5432 145.677 97.7984 147.296C96.8077 149.336 95.817 151.237 94.8262 153.348C91.6418 151.8 88.3865 150.251 85.0605 148.562Z" fill="#BAC9DE"/>
<path d="M227.088 67.2788C227.088 69.9531 227.088 72.4866 227.088 75.2312C224.116 75.2312 221.073 75.2312 217.889 75.2312C217.889 72.6273 217.889 70.0234 217.889 67.2788C220.861 67.2788 223.833 67.2788 227.088 67.2788Z" fill="#BAC9DE"/>
<path d="M277.473 445.617C280.516 445.617 283.488 445.617 286.531 445.617C286.531 448.291 286.531 450.824 286.531 453.569C283.559 453.569 280.516 453.569 277.473 453.569C277.473 450.965 277.473 448.361 277.473 445.617Z" fill="#BAC9DE"/>
<path d="M562.518 161.863C561.74 160.034 561.103 158.415 560.324 156.515C564.287 155.037 568.108 153.559 572.284 151.87C572.991 153.7 573.699 155.389 574.477 157.219C570.373 158.837 566.552 160.385 562.518 161.863Z" fill="#BAC9DE"/>
<path d="M69.3506 242.865C72.6058 242.865 75.6488 242.865 78.904 242.865C78.904 245.399 78.904 247.792 78.904 250.325C75.7195 250.325 72.6766 250.325 69.3506 250.325C69.3506 248.003 69.3506 245.539 69.3506 242.865Z" fill="#BAC9DE"/>
<path d="M105.653 114.993C107.139 113.234 108.555 111.686 110.041 109.926C112.871 112.53 115.561 114.923 118.32 117.456C117.047 119.005 115.773 120.412 114.358 122.101C111.598 119.779 108.625 117.456 105.653 114.993Z" fill="#BAC9DE"/>
<path d="M503.145 427.952C504.914 431.19 506.471 434.145 508.17 437.383C506.117 438.509 504.065 439.564 501.871 440.761C500.385 437.523 499.041 434.427 497.555 431.19C499.465 430.064 501.235 429.078 503.145 427.952Z" fill="#BAC9DE"/>
<path d="M572.85 284.95C572.85 282.839 572.85 280.727 572.85 278.616C576.529 278.616 580.351 278.616 584.243 278.616C584.243 280.727 584.243 282.839 584.243 284.95C580.422 284.95 576.6 284.95 572.85 284.95Z" fill="#BAC9DE"/>
<path d="M69.6338 270.945C69.6338 268.411 69.6338 266.019 69.6338 263.415C72.606 263.415 75.7197 263.415 78.9749 263.415C78.9749 265.948 78.9749 268.341 78.9749 270.945C75.9556 270.945 72.8418 270.945 69.6338 270.945Z" fill="#BAC9DE"/>
<path d="M542.775 409.936C539.944 407.332 537.184 404.94 534.354 402.406C535.698 400.928 536.972 399.591 538.316 398.184C541.289 400.365 544.261 402.547 547.374 405.01C545.888 406.629 544.332 408.247 542.775 409.936Z" fill="#BAC9DE"/>
<path d="M257.376 67.2788C257.376 69.9531 257.376 72.557 257.376 75.2312C254.475 75.2312 251.573 75.2312 248.53 75.2312C248.53 72.6273 248.53 70.0234 248.53 67.2788C251.432 67.2788 254.262 67.2788 257.376 67.2788Z" fill="#BAC9DE"/>
<path d="M417.731 75.2313C417.731 72.557 417.731 69.9531 417.731 67.2085C420.633 67.2085 423.534 67.2085 426.577 67.2085C426.577 69.8828 426.577 72.4866 426.577 75.2313C423.605 75.2313 420.704 75.2313 417.731 75.2313Z" fill="#BAC9DE"/>
<path d="M318.446 67.2085C321.418 67.2085 324.249 67.2085 327.221 67.2085C327.221 69.8828 327.221 72.4163 327.221 75.1609C324.32 75.1609 321.489 75.1609 318.446 75.1609C318.446 72.557 318.446 69.9531 318.446 67.2085Z" fill="#BAC9DE"/>
<path d="M144.504 83.8874C146.839 82.7614 148.891 81.7762 151.227 80.6501C152.854 83.3948 154.411 86.1394 156.039 88.9544C153.987 90.0804 152.005 91.0657 149.953 92.1917C148.113 89.4471 146.273 86.7024 144.504 83.8874Z" fill="#BAC9DE"/>
<path d="M487.364 84.38C485.171 83.5355 483.048 82.7614 480.783 81.8465C481.632 79.0315 482.552 76.2165 483.402 73.2607C486.091 74.1052 488.638 75.0201 491.257 75.935C489.983 78.8908 488.709 81.565 487.364 84.38Z" fill="#BAC9DE"/>
<path d="M572.85 214.926C576.529 214.926 579.997 214.926 583.677 214.926C583.677 216.967 583.677 219.008 583.677 221.19C580.138 221.19 576.6 221.19 572.85 221.19C572.85 219.219 572.85 217.249 572.85 214.926Z" fill="#BAC9DE"/>
<path d="M492.813 444.842C491.681 441.464 490.69 438.298 489.629 435.06C491.469 434.216 493.167 433.301 495.149 432.386C496.564 435.623 497.979 438.72 499.465 441.957C497.272 442.872 495.149 443.787 492.813 444.842Z" fill="#BAC9DE"/>
<path d="M78.9035 253.21C78.9035 255.744 78.9035 258.066 78.9035 260.529C75.7191 260.529 72.7469 260.529 69.4209 260.529C69.4209 258.066 69.4209 255.674 69.4209 253.21C72.5346 253.21 75.5775 253.21 78.9035 253.21Z" fill="#BAC9DE"/>
<path d="M358.076 67.2788C358.076 69.9062 358.076 72.51 358.076 75.0905C355.245 75.0905 352.485 75.0905 349.584 75.0905C349.584 72.4631 349.584 69.8592 349.584 67.2788C352.415 67.2788 355.174 67.2788 358.076 67.2788Z" fill="#BAC9DE"/>
<path d="M409.523 445.617C409.523 448.361 409.523 450.965 409.523 453.569C406.692 453.569 403.932 453.569 401.102 453.569C401.102 450.895 401.102 448.291 401.102 445.617C403.932 445.617 406.692 445.617 409.523 445.617Z" fill="#BAC9DE"/>
<path d="M338.332 75.2312C338.332 72.4866 338.332 69.8827 338.332 67.2788C341.163 67.2788 343.923 67.2788 346.753 67.2788C346.753 69.9531 346.753 72.557 346.753 75.2312C343.923 75.2312 341.163 75.2312 338.332 75.2312Z" fill="#BAC9DE"/>
<path d="M398.412 453.639C395.511 453.639 392.822 453.639 389.991 453.639C389.991 450.965 389.991 448.361 389.991 445.687C392.822 445.687 395.511 445.687 398.412 445.687C398.412 448.291 398.412 450.895 398.412 453.639Z" fill="#BAC9DE"/>
<path d="M248.53 453.358C248.53 450.754 248.53 448.291 248.53 445.617C251.432 445.617 254.333 445.617 257.376 445.617C257.376 448.221 257.376 450.684 257.376 453.358C254.475 453.358 251.573 453.358 248.53 453.358Z" fill="#BAC9DE"/>
<path d="M132.474 417.396C130.634 419.93 128.864 422.322 127.025 424.856C125.043 423.308 123.203 421.83 121.363 420.211C123.345 417.748 125.326 415.426 127.308 412.962C129.006 414.44 130.775 415.848 132.474 417.396Z" fill="#BAC9DE"/>
<path d="M214.137 445.194C214.137 447.962 214.137 450.566 214.137 453.006C211.307 453.006 208.547 453.006 205.504 453.006C205.787 450.05 206.07 447.376 206.282 444.561C208.971 444.843 211.519 445.054 214.137 445.194Z" fill="#BAC9DE"/>
<path d="M102.54 382.631C99.7802 384.531 97.1619 386.22 94.402 388.05C93.1282 385.938 92.0668 383.968 90.793 381.857C93.6236 380.238 96.2419 378.69 99.0726 377.071C100.134 378.901 101.266 380.66 102.54 382.631Z" fill="#BAC9DE"/>
<path d="M583.818 233.998C583.818 235.969 583.818 237.869 583.818 239.91C580.209 239.91 576.529 239.91 572.85 239.91C572.85 237.986 572.85 236.015 572.85 233.998C576.459 233.998 579.997 233.998 583.818 233.998Z" fill="#BAC9DE"/>
<path d="M518.927 103.452C517.511 102.326 516.238 101.34 514.822 100.144C517.087 97.1883 519.21 94.3733 521.545 91.3472C523.314 92.6139 524.942 93.8103 526.782 95.0067C524.093 97.9624 521.545 100.637 518.927 103.452Z" fill="#BAC9DE"/>
<path d="M69.3506 233.646C72.7473 233.646 75.9318 233.646 79.187 233.646C79.1163 235.828 78.9747 238.009 78.904 240.402C75.6488 240.402 72.5351 240.402 69.3506 240.402C69.3506 238.08 69.3506 235.898 69.3506 233.646Z" fill="#BAC9DE"/>
<path d="M543.694 391.709C546.667 393.961 549.639 396.213 552.753 398.536C551.479 400.013 550.417 401.421 549.144 403.04C546.101 400.788 543.058 398.465 540.015 396.213C541.288 394.595 542.491 393.117 543.694 391.709Z" fill="#BAC9DE"/>
<path d="M164.743 444.561C166.017 441.746 167.22 439.142 168.352 436.327C170.404 436.96 172.386 437.594 174.58 438.298C173.943 441.183 173.306 443.928 172.598 447.024C169.98 446.25 167.432 445.476 164.743 444.561Z" fill="#BAC9DE"/>
<path d="M578.512 170.379C579.007 172.349 579.432 174.249 579.927 176.149C575.893 176.783 572.072 177.416 567.968 178.05C567.472 176.572 567.118 175.164 566.623 173.475C570.515 172.56 574.478 171.505 578.512 170.379Z" fill="#BAC9DE"/>
<path d="M82.2295 334.494C82.7957 336.957 83.3618 339.139 83.8571 341.461C81.0265 342.094 78.2666 342.657 75.2237 343.291C74.5868 340.757 74.0207 338.435 73.3838 335.761C76.4267 335.409 79.1866 334.916 82.2295 334.494Z" fill="#BAC9DE"/>
<path d="M155.614 441.113C156.747 438.298 157.808 435.623 159.011 432.808C161.276 433.723 163.611 434.638 165.946 435.553C164.672 438.298 163.469 440.902 162.337 443.717C160.002 442.872 157.879 442.028 155.614 441.113Z" fill="#BAC9DE"/>
<path d="M533.15 419.296C531.664 420.563 530.32 421.759 528.834 423.097C526.286 420.422 523.88 417.818 521.262 415.003C522.677 413.666 524.092 412.47 525.578 411.133C528.055 413.807 530.532 416.552 533.15 419.296Z" fill="#BAC9DE"/>
<path d="M100.275 122.101C101.549 120.342 102.752 118.794 103.955 117.175C106.927 119.638 109.758 121.89 112.801 124.212C111.669 125.62 110.678 126.957 109.616 128.365C106.503 126.253 103.531 124.212 100.275 122.101Z" fill="#BAC9DE"/>
<path d="M420.349 453.639C417.66 453.639 415.112 453.639 412.353 453.639C412.353 450.965 412.353 448.361 412.353 445.617C415.042 445.617 417.589 445.617 420.349 445.617C420.349 448.291 420.349 450.895 420.349 453.639Z" fill="#BAC9DE"/>
<path d="M125.114 411.344C123.204 413.666 121.293 416.059 119.17 418.663C117.542 416.763 115.844 415.074 114.146 413.103C116.268 411.133 118.533 409.092 120.868 406.91C122.284 408.318 123.628 409.725 125.114 411.344Z" fill="#BAC9DE"/>
<path d="M85.0611 370.737C84.1411 368.556 83.2212 366.585 82.2305 364.403C84.9903 363.137 87.7502 361.94 90.5101 360.744C91.5008 362.855 92.4208 364.826 93.4115 367.007C90.6516 368.274 87.9625 369.541 85.0611 370.737Z" fill="#BAC9DE"/>
<path d="M89.3773 379.534C88.2451 377.353 87.2543 375.382 86.1221 373.2C88.9527 371.934 91.7126 370.667 94.614 369.4C95.6047 371.23 96.5954 372.919 97.5861 374.819C94.9678 376.367 92.3495 377.916 89.3773 379.534Z" fill="#BAC9DE"/>
<path d="M238.057 453.287C238.057 450.684 238.057 448.22 238.057 445.546C240.604 445.546 243.081 445.546 245.699 445.546C245.699 448.08 245.699 450.613 245.699 453.287C243.223 453.287 240.746 453.287 238.057 453.287Z" fill="#BAC9DE"/>
<path d="M584.597 304.021C584.668 305.922 584.81 307.611 584.88 309.511C580.776 309.511 576.813 309.511 572.779 309.511C572.779 307.681 572.779 305.922 572.779 304.021C576.742 304.021 580.634 304.021 584.597 304.021Z" fill="#BAC9DE"/>
<path d="M79.3283 231.042C76.0023 231.042 72.9593 231.042 69.7041 231.042C69.7041 228.931 69.7041 226.82 69.7041 224.708C72.9593 224.708 76.073 224.708 79.3283 224.708C79.3283 226.749 79.3283 228.79 79.3283 231.042Z" fill="#BAC9DE"/>
<path d="M225.036 453.358C222.276 453.358 219.658 453.358 216.969 453.358C216.969 450.684 216.969 448.009 216.969 445.406C219.658 445.406 222.276 445.406 225.036 445.406C225.036 448.15 225.036 450.613 225.036 453.358Z" fill="#BAC9DE"/>
<path d="M571.223 195.221C571.01 193.321 570.727 191.773 570.444 189.943C574.407 189.31 578.087 188.747 582.05 188.113C582.262 189.943 582.475 191.562 582.687 193.391C578.795 193.954 575.186 194.588 571.223 195.221Z" fill="#BAC9DE"/>
<path d="M287.805 67.2788C287.805 69.9531 287.805 72.557 287.805 75.2312C285.257 75.2312 282.851 75.2312 280.304 75.2312C280.304 72.6273 280.304 70.0234 280.304 67.2788C282.71 67.2788 285.116 67.2788 287.805 67.2788Z" fill="#BAC9DE"/>
<path d="M237.49 67.2788C237.49 69.9062 237.49 72.51 237.49 75.0905C234.943 75.0905 232.466 75.0905 229.848 75.0905C229.848 72.4631 229.848 69.8592 229.848 67.2788C232.254 67.2788 234.801 67.2788 237.49 67.2788Z" fill="#BAC9DE"/>
<path d="M107.848 406.488C110.466 404.377 112.801 402.336 115.349 400.225C116.623 401.702 117.896 403.18 119.241 404.869C116.906 406.981 114.57 409.092 112.164 411.414C110.678 409.655 109.263 408.107 107.848 406.488Z" fill="#BAC9DE"/>
<path d="M582.899 195.925C583.041 197.895 583.182 199.725 583.465 201.625C579.573 201.907 575.964 202.188 572.072 202.47C571.93 200.851 571.789 199.303 571.506 197.684C575.327 197.121 579.007 196.488 582.899 195.925Z" fill="#BAC9DE"/>
<path d="M170.971 82.7614C168.919 83.4651 167.079 84.1689 165.027 84.943C163.753 82.1984 162.55 79.5241 161.347 76.6387C163.47 75.935 165.593 75.2312 167.999 74.3867C168.919 77.2721 169.98 79.9464 170.971 82.7614Z" fill="#BAC9DE"/>
<path d="M451.911 444.983C452.123 447.869 452.336 450.613 452.548 453.569C450 453.569 447.736 453.569 445.188 453.569C445.047 450.965 444.764 448.291 444.622 445.546C447.028 445.406 449.363 445.194 451.911 444.983Z" fill="#BAC9DE"/>
<path d="M70.4824 300.714C73.5254 300.714 76.4975 300.714 79.6112 300.714C79.6112 302.755 79.6112 304.796 79.6112 306.977C76.6391 306.977 73.5961 306.977 70.4824 306.977C70.4824 304.866 70.4824 302.825 70.4824 300.714Z" fill="#BAC9DE"/>
<path d="M572.85 268.623C572.85 266.793 572.85 265.174 572.85 263.415C576.529 263.415 580.28 263.415 584.031 263.415C584.031 265.174 584.031 266.793 584.031 268.623C580.351 268.623 576.671 268.623 572.85 268.623Z" fill="#BAC9DE"/>
<path d="M493.805 76.9906C495.786 77.7647 497.485 78.4685 499.537 79.313C498.192 82.1984 496.848 85.0838 495.432 88.1099C493.522 87.2654 491.752 86.3505 489.842 85.4356C491.186 82.691 492.46 79.9464 493.805 76.9906Z" fill="#BAC9DE"/>
<path d="M134.597 419.015C136.437 420.282 138.064 421.478 139.834 422.604C137.994 425.137 136.295 427.46 134.455 429.993C132.686 428.797 130.988 427.671 129.219 426.404C131.059 423.941 132.828 421.548 134.597 419.015Z" fill="#BAC9DE"/>
<path d="M202.957 452.795C200.621 452.513 198.569 452.232 196.163 452.021C196.375 449.135 196.658 446.391 196.871 443.365C199.206 443.646 201.4 443.998 203.735 444.279C203.452 447.165 203.24 449.91 202.957 452.795Z" fill="#BAC9DE"/>
<path d="M305.708 67.2788C305.708 69.9531 305.708 72.4866 305.708 75.2312C303.373 75.2312 301.038 75.2312 298.632 75.2312C298.632 72.6273 298.632 70.0234 298.632 67.2788C300.896 67.2788 303.161 67.2788 305.708 67.2788Z" fill="#BAC9DE"/>
<path d="M308.397 67.2085C310.874 67.2085 313.21 67.2085 315.686 67.2085C315.686 69.8828 315.686 72.4866 315.686 75.1609C313.351 75.1609 310.945 75.1609 308.397 75.1609C308.397 72.6274 308.397 70.0235 308.397 67.2085Z" fill="#BAC9DE"/>
<path d="M405.418 75.2313C402.941 75.2313 400.606 75.2313 398.129 75.2313C398.129 72.557 398.129 69.9531 398.129 67.2085C400.606 67.2085 402.941 67.2085 405.418 67.2085C405.418 69.8828 405.418 72.557 405.418 75.2313Z" fill="#BAC9DE"/>
<path d="M379.871 453.499C379.871 450.754 379.871 448.22 379.871 445.546C382.348 445.546 384.683 445.546 387.231 445.546C387.231 448.22 387.231 450.754 387.231 453.499C384.825 453.499 382.419 453.499 379.871 453.499Z" fill="#BAC9DE"/>
<path d="M70.3416 298.04C70.2 296.069 70.1293 294.169 69.917 292.128C73.1722 292.128 76.2859 292.128 79.5412 292.128C79.5412 294.099 79.5412 295.999 79.5412 298.04C76.569 298.04 73.4553 298.04 70.3416 298.04Z" fill="#BAC9DE"/>
<path d="M490.408 445.757C488.568 446.391 486.94 447.024 485.029 447.657C484.039 444.42 482.977 441.394 481.986 438.157C483.826 437.453 485.454 436.82 487.294 436.046C488.285 439.353 489.275 442.45 490.408 445.757Z" fill="#BAC9DE"/>
<path d="M480.925 72.6273C480.076 75.5127 479.156 78.187 478.307 81.0723C476.396 80.5093 474.627 79.9463 472.787 79.4537C473.282 76.5683 473.636 73.8941 474.132 70.8679C476.538 71.5013 478.661 71.9939 480.925 72.6273Z" fill="#BAC9DE"/>
<path d="M235.226 453.358C232.678 453.358 230.414 453.358 227.866 453.358C227.866 450.754 227.866 448.291 227.866 445.617C230.201 445.617 232.678 445.617 235.226 445.617C235.226 448.15 235.226 450.684 235.226 453.358Z" fill="#BAC9DE"/>
<path d="M89.165 140.258C90.0142 138.78 90.7927 137.302 91.7126 135.613C94.9678 137.513 98.0815 139.202 101.337 141.103C100.629 142.44 99.9215 143.636 99.143 145.044C95.8878 143.495 92.5618 141.806 89.165 140.258Z" fill="#BAC9DE"/>
<path d="M408.107 67.2085C410.372 67.2085 412.636 67.2085 414.901 67.2085C414.901 69.8124 414.901 72.4163 414.901 75.1609C412.707 75.1609 410.372 75.1609 408.107 75.1609C408.107 72.557 408.107 70.0235 408.107 67.2085Z" fill="#BAC9DE"/>
<path d="M395.44 75.2313C393.175 75.2313 390.911 75.2313 388.646 75.2313C388.646 72.557 388.646 69.9531 388.646 67.2085C390.84 67.2085 393.175 67.2085 395.44 67.2085C395.44 69.8828 395.44 72.4866 395.44 75.2313Z" fill="#BAC9DE"/>
<path d="M502.155 91.699C500.669 90.9249 499.395 90.2211 497.838 89.3766C499.253 86.4209 500.598 83.4651 502.013 80.439C503.853 81.2835 505.481 82.1983 507.321 83.0429C505.481 85.9986 503.853 88.8136 502.155 91.699Z" fill="#BAC9DE"/>
<path d="M538.458 122.312C537.609 121.468 536.901 120.553 535.91 119.638C538.953 116.823 541.996 114.078 545.11 111.263C546.313 112.389 547.374 113.445 548.648 114.641C545.251 117.175 541.996 119.708 538.458 122.312Z" fill="#BAC9DE"/>
<path d="M201.399 67.7011C203.593 67.5604 205.575 67.4196 207.768 67.2085C208.051 70.0235 208.405 72.6978 208.618 75.5128C206.424 75.6535 204.372 75.7943 202.178 76.0054C202.036 73.2608 201.753 70.5865 201.399 67.7011Z" fill="#BAC9DE"/>
<path d="M460.12 443.928C460.615 446.954 460.969 449.839 461.394 452.795C459.271 453.006 457.36 453.217 455.166 453.428C454.954 450.473 454.742 447.658 454.529 444.631C456.298 444.42 458.138 444.209 460.12 443.928Z" fill="#BAC9DE"/>
<path d="M80.7439 205.637C80.6023 207.466 80.5316 209.085 80.3193 210.915C76.9933 210.915 73.738 210.915 70.2705 210.915C70.412 209.085 70.5536 207.466 70.7659 205.637C74.1626 205.637 77.4886 205.637 80.7439 205.637Z" fill="#BAC9DE"/>
<path d="M379.234 67.2085C381.428 67.2085 383.41 67.2085 385.603 67.2085C385.603 69.8124 385.603 72.4163 385.603 75.2313C383.528 75.2313 381.405 75.2313 379.234 75.2313C379.234 72.557 379.234 69.9531 379.234 67.2085Z" fill="#BAC9DE"/>
<path d="M268.486 453.499C268.486 450.824 268.486 448.291 268.486 445.687C270.539 445.687 272.591 445.687 274.785 445.687C274.785 448.267 274.785 450.871 274.785 453.499C272.803 453.499 270.751 453.499 268.486 453.499Z" fill="#BAC9DE"/>
<path d="M98.7896 394.735C97.7988 393.187 96.8081 391.78 95.8174 390.372C98.5065 388.542 101.125 386.853 103.885 384.953C104.805 386.29 105.725 387.557 106.715 388.965C104.168 390.865 101.549 392.765 98.7896 394.735Z" fill="#BAC9DE"/>
<path d="M469.673 451.458C467.621 451.739 465.852 452.091 463.941 452.443C463.446 449.417 463.092 446.461 462.597 443.365C464.224 443.083 465.923 442.661 467.692 442.239C468.399 445.476 469.036 448.361 469.673 451.458Z" fill="#BAC9DE"/>
<path d="M182.718 440.62C182.01 443.505 181.373 446.25 180.737 449.206C178.826 448.713 177.057 448.291 175.217 447.798C175.924 444.842 176.561 442.098 177.198 439.142C179.038 439.635 180.807 440.127 182.718 440.62Z" fill="#BAC9DE"/>
<path d="M265.938 453.71C263.815 453.639 261.976 453.499 259.994 453.428C259.994 450.824 259.994 448.361 259.994 445.617C261.976 445.617 263.886 445.617 265.938 445.617C265.938 448.291 265.938 450.895 265.938 453.71Z" fill="#BAC9DE"/>
<path d="M184.416 70.2347C186.61 69.8124 188.45 69.5309 190.431 69.1086C190.926 71.8533 191.422 74.5979 191.917 77.4129C190.007 77.8352 188.237 78.1167 186.256 78.5389C185.548 75.8647 185.053 73.12 184.416 70.2347Z" fill="#BAC9DE"/>
<path d="M83.1502 186.706C79.7535 186.283 76.4275 185.932 72.96 185.439C73.3846 183.468 73.6676 181.779 73.9507 179.739C77.3474 180.724 80.6734 181.779 83.9994 182.765C83.7164 184.172 83.5041 185.369 83.1502 186.706Z" fill="#BAC9DE"/>
<path d="M93.7652 155.741C93.199 157.007 92.6329 158.204 91.996 159.541C88.5993 158.274 85.344 157.007 81.9473 155.741C82.5842 154.192 83.2211 152.785 83.9287 151.026C87.2547 152.644 90.4392 154.192 93.7652 155.741Z" fill="#BAC9DE"/>
<path d="M441.933 445.687C442.075 448.432 442.358 450.965 442.499 453.639C440.376 453.639 438.395 453.639 436.201 453.639C436.201 451.036 436.201 448.432 436.201 445.687C438.041 445.687 439.81 445.687 441.933 445.687Z" fill="#BAC9DE"/>
<path d="M130.139 105.985C129.148 106.9 128.157 107.745 127.308 108.519C124.619 105.985 122.001 103.522 119.312 100.918C120.585 99.7922 121.647 98.8773 122.85 97.9624C125.256 100.566 127.591 103.241 130.139 105.985Z" fill="#BAC9DE"/>
<path d="M158.444 87.7581C156.888 85.0134 155.402 82.4095 153.703 79.5945C155.472 78.8908 157.1 78.2574 158.798 77.4833C160.072 80.2983 161.346 83.0429 162.62 85.8579C161.204 86.5617 159.931 87.1951 158.444 87.7581Z" fill="#BAC9DE"/>
<path d="M148.184 437.735C149.599 434.92 150.873 432.316 152.217 429.641C153.703 430.345 155.048 430.979 156.534 431.682C155.402 434.497 154.34 437.172 153.137 439.987C151.51 439.283 149.953 438.579 148.184 437.735Z" fill="#BAC9DE"/>
<path d="M79.2574 273.83C79.2574 275.379 79.2574 276.786 79.2574 278.334C76.073 278.334 73.03 278.334 69.7748 278.334C69.704 276.927 69.6333 275.449 69.5625 273.83C72.8177 273.83 75.9314 273.83 79.2574 273.83Z" fill="#BAC9DE"/>
<path d="M458.704 76.498C456.794 76.2868 455.237 76.0053 453.468 75.7942C453.609 73.0496 453.751 70.4457 454.034 67.5603C456.015 67.7714 457.926 67.9826 460.049 68.1937C459.554 71.0791 459.129 73.683 458.704 76.498Z" fill="#BAC9DE"/>
<path d="M198.852 67.9122C199.135 70.7272 199.418 73.4015 199.701 76.2165C197.932 76.4277 196.305 76.7795 194.394 76.9907C193.898 74.3164 193.474 71.6421 192.979 68.6864C194.96 68.5456 196.8 68.2641 198.852 67.9122Z" fill="#BAC9DE"/>
<path d="M584.101 271.438C584.101 272.845 584.101 274.182 584.101 275.59C580.28 275.59 576.6 275.59 572.85 275.59C572.85 274.182 572.85 272.845 572.85 271.438C576.529 271.438 580.28 271.438 584.101 271.438Z" fill="#BAC9DE"/>
<path d="M335.643 75.2312C333.732 75.2312 331.963 75.2312 329.981 75.2312C329.981 72.557 329.981 70.0234 329.981 67.2788C331.821 67.2788 333.591 67.2788 335.643 67.2788C335.643 69.8123 335.643 72.4162 335.643 75.2312Z" fill="#BAC9DE"/>
<path d="M429.407 67.2085C431.318 67.2085 433.087 67.2085 435.069 67.2085C435.069 69.8828 435.069 72.4866 435.069 75.2313C433.229 75.2313 431.389 75.2313 429.407 75.2313C429.407 72.557 429.407 69.9531 429.407 67.2085Z" fill="#BAC9DE"/>
<path d="M245.699 75.2313C243.788 75.2313 242.019 75.2313 240.108 75.2313C240.108 72.557 240.108 69.9531 240.108 67.2085C242.019 67.2085 243.717 67.2085 245.699 67.2085C245.699 69.8828 245.699 72.4866 245.699 75.2313Z" fill="#BAC9DE"/>
<path d="M80.9566 326.893C81.1689 328.653 81.452 330.131 81.735 331.89C78.8336 332.312 75.9322 332.735 72.9601 333.157C72.677 331.397 72.3939 329.92 72.1816 328.16C75.083 327.738 77.9137 327.386 80.9566 326.893Z" fill="#BAC9DE"/>
<path d="M443.278 75.1609C441.367 75.1609 439.669 75.1609 437.899 75.1609C437.899 72.4866 437.899 69.9531 437.899 67.3492C439.739 67.3492 441.579 67.3492 443.631 67.3492C443.631 69.8124 443.49 72.4163 443.278 75.1609Z" fill="#BAC9DE"/>
<path d="M295.802 75.2312C293.962 75.2312 292.334 75.2312 290.494 75.2312C290.494 72.6273 290.494 70.0234 290.494 67.2788C292.263 67.2788 293.962 67.2788 295.802 67.2788C295.802 69.8827 295.802 72.4866 295.802 75.2312Z" fill="#BAC9DE"/>
<path d="M265.16 75.2312C263.32 75.2312 261.692 75.2312 259.923 75.2312C259.923 72.557 259.923 70.0234 259.923 67.2788C261.55 67.2788 263.32 67.2788 265.16 67.2788C265.16 69.8827 265.16 72.4866 265.16 75.2312Z" fill="#BAC9DE"/>
<path d="M71.0488 202.751C71.1196 201.414 71.1904 200.147 71.2611 198.81C74.7287 198.81 78.0547 198.81 81.4514 198.81C81.3807 200.147 81.2391 201.414 81.1684 202.751C77.7008 202.751 74.5164 202.751 71.0488 202.751Z" fill="#BAC9DE"/>
<path d="M80.6022 324.29C77.6301 324.712 74.6579 325.064 71.6857 325.486C71.4734 323.727 71.2611 322.178 71.0488 320.419C74.2333 320.419 77.1347 320.419 80.3899 320.419C80.5315 321.756 80.5315 322.952 80.6022 324.29Z" fill="#BAC9DE"/>
<path d="M446.25 67.2085C448.161 67.2085 449.576 67.2085 451.133 67.2085C451.133 69.9531 451.133 72.6274 451.133 75.3017C449.293 75.3017 447.736 75.3017 446.25 75.3017C446.25 72.557 446.25 69.9531 446.25 67.2085Z" fill="#BAC9DE"/>
<path d="M572.85 291.143C572.85 290.017 572.85 288.961 572.85 287.765C576.671 287.765 580.351 287.765 584.384 287.765C584.455 288.891 584.526 289.876 584.597 291.143C580.563 291.143 576.742 291.143 572.85 291.143Z" fill="#BAC9DE"/>
<path d="M77.2762 350.539C76.7808 348.991 76.427 347.584 75.9316 345.895C78.833 345.261 81.5221 344.698 84.5651 344.065C84.8481 345.191 85.202 346.247 85.5558 347.513C82.7959 348.499 80.1068 349.484 77.2762 350.539Z" fill="#BAC9DE"/>
<path d="M210.528 67.2085C212.085 67.2085 213.43 67.2085 214.916 67.2085C214.916 69.8828 214.916 72.4866 214.916 75.2313C213.713 75.2313 212.651 75.2313 211.378 75.2313C211.024 72.6274 210.811 70.0235 210.528 67.2085Z" fill="#BAC9DE"/>
<path d="M363.1 67.1381C363.1 69.9531 363.1 72.4866 363.1 75.1609C362.392 75.1609 361.755 75.1609 360.977 75.1609C360.977 72.557 360.977 69.9531 360.977 67.2084C361.543 67.2084 362.18 67.1381 363.1 67.1381Z" fill="#BAC9DE"/>
<path d="M225.601 96.3438C225.53 96.4142 225.46 96.4846 225.39 96.4846C225.39 96.3438 225.39 96.2031 225.39 95.9919C225.39 96.2031 225.46 96.2734 225.601 96.3438Z" fill="#BAC9DE"/>
<path d="M558.909 390.442C557.636 392.413 556.574 394.243 555.371 396.143C552.045 394.102 548.931 392.202 545.605 390.161C546.808 388.19 547.941 386.29 549.144 384.249C552.399 386.361 555.583 388.331 558.909 390.442Z" fill="#BAC9DE"/>
<mask id="mask0_13497_44913" style="mask-type:alpha" maskUnits="userSpaceOnUse" x="195" y="179" width="272" height="163">
<path d="M333.237 294.38C351.565 293.395 366.355 278.546 366.355 260.318C366.284 241.81 351.565 227.031 333.237 226.186V294.38Z" fill="#63991B"/>
<path d="M330.972 226.116V294.521C312.007 294.239 296.721 278.897 296.721 260.248C296.721 241.598 311.865 226.397 330.972 226.116Z" fill="#63991B"/>
<path fill-rule="evenodd" clip-rule="evenodd" d="M466.489 216.123V179.809H195.81V216.123H249.804V238.643C261.41 239.276 270.963 248.918 270.963 260.459C270.963 272.001 261.763 281.501 249.804 282.275V304.796H195.88V341.109H466.489V304.796H412.566V282.275C400.96 281.642 391.407 272.001 391.407 260.459C391.407 248.918 400.606 239.417 412.566 238.643V216.123H466.489ZM333.237 223.723C352.981 224.708 368.761 240.824 368.761 260.389C368.691 279.883 353.051 296.069 333.237 296.773V340.265H330.902V296.773C310.663 296.351 294.316 280.164 294.316 260.107C294.316 240.05 310.663 223.794 330.902 223.442V180.231H333.237V223.723Z" fill="#63991B"/>
<path d="M247.398 302.121H195.81V285.231H229.353V235.194H195.81V218.445H247.398V302.121Z" fill="#63991B"/>
<path d="M195.81 237.587H226.947V283.12H195.81V237.587Z" fill="#63991B"/>
<path d="M466.418 218.445H414.759V302.121H466.418V285.231H433.654V235.194H466.418V218.445Z" fill="#63991B"/>
<path d="M436.06 237.587H466.56V283.12H436.06V237.587Z" fill="#63991B"/>
<path d="M249.662 279.672C259.994 279.038 268.415 270.663 268.415 260.248C268.415 249.762 260.348 241.598 249.662 240.895V279.672Z" fill="#63991B"/>
<path d="M393.812 260.318C393.812 249.903 402.234 241.528 412.565 240.895V279.672C402.092 279.179 393.883 270.804 393.812 260.318Z" fill="#63991B"/>
</mask>
<g mask="url(#mask0_13497_44913)">
<rect x="196.021" y="180.161" width="16.8954" height="161.16" fill="#85BB3E"/>
<rect x="212.917" y="180.161" width="16.8954" height="161.16" fill="#6D9933"/>
<rect x="229.812" y="180.161" width="16.8954" height="161.16" fill="#85BB3E"/>
<rect x="263.603" y="180.161" width="16.8954" height="161.16" fill="#85BB3E"/>
<rect x="297.394" y="180.161" width="16.8954" height="161.16" fill="#85BB3E"/>
<rect x="331.185" y="180.161" width="16.8954" height="161.16" fill="#85BB3E"/>
<rect x="364.975" y="180.161" width="16.8954" height="161.16" fill="#85BB3E"/>
<rect x="398.766" y="180.161" width="16.8954" height="161.16" fill="#85BB3E"/>
<rect x="432.557" y="180.161" width="16.8954" height="161.16" fill="#85BB3E"/>
<rect x="246.708" y="180.161" width="16.8954" height="161.16" fill="#6D9933"/>
<rect x="280.498" y="180.161" width="16.8954" height="161.16" fill="#6D9933"/>
<rect x="314.289" y="180.161" width="16.8954" height="161.16" fill="#6D9933"/>
<rect x="348.08" y="180.161" width="16.8954" height="161.16" fill="#6D9933"/>
<rect x="381.87" y="180.161" width="16.8954" height="161.16" fill="#6D9933"/>
<rect x="415.661" y="180.161" width="16.8954" height="161.16" fill="#6D9933"/>
<rect x="449.452" y="180.161" width="16.8954" height="161.16" fill="#6D9933"/>
</g>
<path d="M464.225 416.763C469.603 415.003 474.84 413.385 480.288 411.696C482.553 418.804 485.03 426.123 487.436 433.794C480.996 435.694 474.627 437.453 468.188 439.353C466.914 431.682 465.569 424.293 464.225 416.763Z" fill="#BAC9DE"/>
<path d="M490.408 430.838C487.931 423.448 485.596 416.27 483.331 409.233C488.355 406.347 493.168 403.462 498.333 400.436C502.367 406.418 506.755 412.822 511.354 419.578C504.702 424.011 497.767 427.53 490.408 430.838Z" fill="#BAC9DE"/>
<path d="M119.028 260.952C119.028 249.41 119.028 237.658 119.028 225.975C136.366 225.975 153.987 225.975 171.537 225.975C171.537 237.658 171.537 249.129 171.537 260.952C153.987 260.952 136.649 260.952 119.028 260.952Z" fill="#73C157"/>
<path d="M171.396 262.993C171.396 274.464 171.396 285.654 171.396 296.984C153.987 296.984 136.72 296.984 119.241 296.984C119.241 285.583 119.241 274.253 119.241 262.993C136.579 262.993 153.917 262.993 171.396 262.993Z" fill="#73C157"/>
<path d="M180.241 178.261C175.57 183.187 172.881 188.606 171.961 195.292C154.624 191.28 137.428 187.339 120.231 183.469C121.718 167.775 129.431 154.966 138.489 142.721C152.359 154.615 166.159 166.367 180.241 178.261Z" fill="#73C157"/>
<path d="M171.608 197.473C171.608 206.341 171.608 214.997 171.608 223.934C153.987 223.934 136.508 223.934 118.675 223.934C119.453 211.478 117.401 198.67 119.595 185.58C137.074 189.521 154.341 193.532 171.608 197.473Z" fill="#73C157"/>
<path d="M119.17 299.447C136.649 299.447 153.845 299.447 171.254 299.447C171.254 308.385 171.254 317.252 171.254 326.26C154.694 330.06 138.064 333.861 121.293 337.731C118.745 324.923 119.382 312.255 119.17 299.447Z" fill="#73C157"/>
<path d="M139.197 380.097C130.563 367.782 124.336 354.762 121.576 339.913C138.135 336.042 154.695 332.312 171.537 328.371C172.952 334.916 177.198 339.913 180.029 345.965C166.583 357.296 152.996 368.556 139.197 380.097Z" fill="#73C157"/>
<path d="M256.314 418.592C244.638 418.592 233.032 418.592 221.427 418.592C221.427 400.717 221.427 382.912 221.427 365.037C233.032 365.037 244.638 365.037 256.314 365.037C256.314 382.771 256.314 400.576 256.314 418.592Z" fill="#914AD7"/>
<path d="M402.021 365.037C402.021 382.842 402.021 400.506 402.021 418.241C390.415 418.241 378.881 418.241 367.346 418.241C367.346 400.506 367.346 382.771 367.346 365.037C378.951 365.037 390.345 365.037 402.021 365.037Z" fill="#914AD7"/>
<path d="M293.113 365.037C293.113 382.842 293.113 400.576 293.113 418.522C281.578 418.522 270.256 418.522 258.721 418.522C258.721 400.717 258.721 382.983 258.721 365.037C270.09 365.037 281.555 365.037 293.113 365.037Z" fill="#914AD7"/>
<path d="M404.569 365.037C416.104 365.037 427.427 365.037 438.891 365.037C438.891 382.631 438.891 400.084 438.891 418.1C427.427 418.1 416.033 418.1 404.569 418.1C404.569 400.576 404.569 382.912 404.569 365.037Z" fill="#914AD7"/>
<path d="M332.246 365.037C343.285 365.037 354.042 365.037 364.798 365.037C364.798 382.771 364.798 400.506 364.798 418.311C353.122 418.311 341.445 418.311 329.698 418.311C329.698 409.584 329.698 400.928 329.698 392.131C330.477 392.061 331.184 391.991 332.175 391.92C332.246 382.912 332.246 374.045 332.246 365.037Z" fill="#914AD7"/>
<path d="M140.683 381.857C154.34 370.456 167.927 359.196 181.515 347.724C186.327 353.355 191.988 357.788 198.711 361.096C190.926 376.93 183.142 392.694 175.358 408.74C161.7 402.617 149.811 394.031 140.683 381.857Z" fill="#914AD7"/>
<path d="M218.95 418.804C204.584 418.029 190.927 415.144 177.552 409.655C185.336 393.82 193.12 377.986 200.905 362.011C206.707 364.192 212.652 365.318 218.95 364.896C218.95 382.842 218.95 400.647 218.95 418.804Z" fill="#914AD7"/>
<path d="M327.222 418.381C316.607 418.381 306.063 418.381 295.519 418.381C295.519 400.506 295.519 382.701 295.519 364.896C305.143 364.896 314.696 364.896 324.32 364.896C324.32 373.904 324.32 382.842 324.32 391.85C325.169 391.92 326.16 391.92 327.222 391.991C327.222 400.788 327.222 409.514 327.222 418.381Z" fill="#914AD7"/>
<path d="M483.261 406.84C475.689 390.654 468.188 374.749 460.687 358.703C466.206 355.114 470.877 350.68 475.335 345.824C488.427 356.733 501.448 367.641 514.61 378.619C506.118 390.231 495.857 399.662 483.261 406.84Z" fill="#914AD7"/>
<path d="M481.279 407.895C468.753 414.229 455.237 416.552 441.438 417.678C441.438 399.943 441.438 382.349 441.438 364.544C447.382 363.629 453.255 362.574 458.775 359.829C466.206 375.875 473.636 391.779 481.279 407.895Z" fill="#914AD7"/>
<path d="M402.022 365.037C402.022 382.842 402.022 400.506 402.022 418.24C390.416 418.24 378.882 418.24 367.347 418.24C367.347 400.506 367.347 382.771 367.347 365.037C378.952 365.037 390.346 365.037 402.022 365.037Z" fill="#40BFBF"/>
<path d="M293.113 365.037C293.113 382.842 293.113 400.576 293.113 418.522C281.578 418.522 270.256 418.522 258.721 418.522C258.721 400.717 258.721 382.982 258.721 365.037C270.09 365.037 281.555 365.037 293.113 365.037Z" fill="#40BFBF"/>
<path d="M332.247 365.037C343.286 365.037 354.043 365.037 364.799 365.037C364.799 382.771 364.799 400.506 364.799 418.311C353.123 418.311 341.446 418.311 329.699 418.311C329.699 409.584 329.699 400.928 329.699 392.131C330.478 392.061 331.185 391.991 332.176 391.92C332.247 382.912 332.247 374.045 332.247 365.037Z" fill="#40BFBF"/>
<path d="M327.222 418.381C316.607 418.381 306.063 418.381 295.519 418.381C295.519 400.506 295.519 382.701 295.519 364.896C305.143 364.896 314.696 364.896 324.32 364.896C324.32 373.904 324.32 382.842 324.32 391.85C325.169 391.92 326.16 391.92 327.222 391.991C327.222 400.787 327.222 409.514 327.222 418.381Z" fill="#40BFBF"/>
<path d="M459.342 163.975C450.638 160.034 441.651 158.626 432.31 158.626C432.31 141.032 432.31 123.368 432.31 105.704C449.293 106.267 465.923 109.082 481.775 116.19C474.203 132.094 466.843 148.07 459.342 163.975Z" fill="#914AD7"/>
<path d="M364.799 158.626C353.099 158.626 341.422 158.626 329.77 158.626C329.77 141.102 329.77 123.79 329.77 106.196C341.446 106.196 353.052 106.196 364.799 106.196C364.799 123.579 364.799 140.962 364.799 158.626Z" fill="#914AD7"/>
<path d="M221.498 105.985C233.174 105.985 244.78 105.985 256.386 105.985C256.386 123.579 256.386 140.962 256.386 158.556C244.851 158.556 233.245 158.556 221.498 158.556C221.498 141.103 221.498 123.649 221.498 105.985Z" fill="#914AD7"/>
<path d="M367.275 106.056C378.881 106.056 390.416 106.056 401.951 106.056C401.951 123.579 401.951 141.032 401.951 158.556C390.345 158.556 378.81 158.556 367.275 158.556C367.275 141.103 367.275 123.649 367.275 106.056Z" fill="#914AD7"/>
<path d="M258.792 158.556C258.792 141.032 258.792 123.72 258.792 106.196C270.256 106.196 281.579 106.196 293.113 106.196C293.113 123.556 293.113 141.009 293.113 158.556C281.649 158.556 270.327 158.556 258.792 158.556Z" fill="#914AD7"/>
<path d="M175.5 114.36C182.86 130.828 190.078 146.944 197.367 163.13C191.281 166.367 186.115 170.519 181.515 175.868C167.645 164.256 153.916 152.785 139.834 141.173C148.68 128.928 161.701 121.468 175.5 114.36Z" fill="#914AD7"/>
<path d="M518.714 150.462C512.558 155.107 506.472 159.611 500.315 164.256C498.758 162.497 497.131 160.878 495.574 159.189C488.568 164.749 481.562 170.238 474.698 175.657C470.311 172.138 465.923 168.69 461.465 165.171C468.895 149.407 476.396 133.432 483.898 117.456C499.254 124.353 509.373 136.81 518.714 150.462Z" fill="#914AD7"/>
<path d="M327.222 106.196C327.222 123.72 327.222 141.102 327.222 158.556C316.678 158.556 306.133 158.556 295.519 158.556C295.519 141.196 295.519 123.743 295.519 106.196C306.133 106.196 316.678 106.196 327.222 106.196Z" fill="#914AD7"/>
<path d="M219.092 106.056C219.092 123.72 219.092 141.103 219.092 158.626C212.298 158.415 205.859 159.471 199.419 162.215C192.13 146.029 184.983 129.983 177.623 113.656C190.998 108.308 204.797 106.689 219.092 106.056Z" fill="#914AD7"/>
<path d="M404.569 105.844C412.99 105.844 421.27 105.844 429.762 105.844C429.762 123.368 429.762 140.891 429.762 158.556C421.412 158.556 413.061 158.556 404.569 158.556C404.569 141.103 404.569 123.649 404.569 105.844Z" fill="#914AD7"/>
<path d="M364.799 158.626C353.099 158.626 341.422 158.626 329.77 158.626C329.77 141.103 329.77 123.79 329.77 106.196C341.446 106.196 353.052 106.196 364.799 106.196C364.799 123.579 364.799 140.962 364.799 158.626Z" fill="#40BFBF"/>
<path d="M367.275 106.056C378.881 106.056 390.416 106.056 401.951 106.056C401.951 123.579 401.951 141.032 401.951 158.556C390.345 158.556 378.81 158.556 367.275 158.556C367.275 141.103 367.275 123.649 367.275 106.056Z" fill="#40BFBF"/>
<path d="M258.791 158.556C258.791 141.032 258.791 123.72 258.791 106.196C270.255 106.196 281.578 106.196 293.112 106.196C293.112 123.556 293.112 141.009 293.112 158.556C281.648 158.556 270.326 158.556 258.791 158.556Z" fill="#40BFBF"/>
<path d="M327.222 106.196C327.222 123.72 327.222 141.103 327.222 158.556C316.678 158.556 306.133 158.556 295.519 158.556C295.519 141.196 295.519 123.743 295.519 106.196C306.133 106.196 316.678 106.196 327.222 106.196Z" fill="#40BFBF"/>
<path d="M533.574 260.881C517.086 260.881 500.881 260.881 484.604 260.881C484.604 249.34 484.604 237.869 484.604 226.257C500.881 226.257 517.157 226.257 533.574 226.257C533.574 237.751 533.574 249.293 533.574 260.881Z" fill="#73C157"/>
<path d="M533.292 297.547C534.212 310.144 534.141 322.46 532.018 335.198C516.167 331.609 500.386 327.879 484.534 324.289C484.534 315.281 484.534 306.485 484.534 297.547C500.881 297.547 517.086 297.547 533.292 297.547Z" fill="#73C157"/>
<path d="M484.534 295.154C484.534 284.457 484.534 273.971 484.534 263.204C500.81 263.204 516.945 263.204 533.292 263.204C533.292 273.76 533.292 284.387 533.292 295.154C517.086 295.154 500.952 295.154 484.534 295.154Z" fill="#73C157"/>
<path d="M516.025 376.86C502.863 365.811 489.842 355.044 476.75 344.065C479.793 338.505 483.473 333.157 484.18 326.401C500.032 329.99 515.742 333.649 531.735 337.309C529.046 351.454 524.163 364.615 516.025 376.86Z" fill="#73C157"/>
<path d="M484.534 198.529C500.386 194.588 516.166 190.717 532.23 186.706C533.716 199.092 533.646 211.337 533.646 223.723C517.157 223.723 500.81 223.723 484.393 223.723C484.534 215.419 484.534 207.115 484.534 198.529Z" fill="#73C157"/>
<path d="M484.322 196.347C483.543 191.421 482.199 186.917 479.227 182.765C492.814 172.631 506.259 162.426 519.917 152.222C526.215 162.215 530.249 172.771 531.876 184.454C516.096 188.535 500.315 192.476 484.322 196.347Z" fill="#73C157"/>
<path d="M183.779 496.779C185.832 482.353 187.884 468.066 189.936 453.499C207.698 456.947 225.602 455.68 243.506 456.032C243.506 475.737 243.506 495.302 243.506 515.077C223.125 510.362 203.311 504.31 183.779 496.779Z" fill="#5757CA"/>
<path d="M329.77 456.103C344.064 456.103 358.147 456.103 372.441 456.103C372.441 478.13 372.441 500.087 372.441 522.255C358.288 524.085 344.135 524.93 329.77 525C329.77 501.917 329.77 479.115 329.77 456.103Z" fill="#5757CA"/>
<path d="M417.661 456.103C434.928 455.469 452.053 457.299 469.249 454.062C471.231 467.996 473.212 481.86 475.194 495.724C456.441 503.113 437.405 509.165 417.661 513.951C417.661 494.668 417.661 475.385 417.661 456.103Z" fill="#5757CA"/>
<path d="M287.806 456.032C287.806 478.2 287.806 500.298 287.806 522.537C273.652 520.918 259.711 518.596 245.912 515.499C245.912 495.653 245.912 475.948 245.912 456.032C259.782 456.032 273.794 456.032 287.806 456.032Z" fill="#5757CA"/>
<path d="M415.042 514.655C401.879 517.822 388.505 520.215 374.988 521.974C374.988 500.017 374.988 478.2 374.988 456.243C388.292 456.243 401.596 456.243 415.042 456.243C415.042 475.597 415.042 494.95 415.042 514.655Z" fill="#5757CA"/>
<path d="M290.282 522.889C290.282 500.58 290.282 478.482 290.282 456.103C302.525 456.103 314.838 456.103 327.293 456.103C327.293 478.904 327.293 501.776 327.293 524.93C314.98 525 302.666 524.156 290.282 522.889Z" fill="#5757CA"/>
<path d="M160.78 445.828C169.555 448.995 178.401 451.387 187.6 453.147C185.619 467.363 183.566 481.578 181.514 496.076C169.272 490.868 157.171 486.364 146.061 479.608C151.156 467.855 155.897 456.947 160.78 445.828Z" fill="#5757CA"/>
<path d="M477.316 494.95C475.335 481.156 473.424 467.574 471.514 453.78C480.218 451.88 488.71 449.417 497.202 445.617C502.155 456.666 507.038 467.715 512.062 478.904C500.669 485.097 489.205 490.094 477.316 494.95Z" fill="#5757CA"/>
<path d="M522.536 431.049C529.683 440.831 536.76 450.402 543.907 460.325C534.283 466.94 524.659 473.063 514.256 478.2C509.232 466.87 504.208 455.821 499.254 444.702C507.463 440.901 515.035 436.327 522.536 431.049Z" fill="#5757CA"/>
<path d="M112.73 460.044C103.601 452.936 94.6849 445.968 85.4854 438.861C94.4726 430.627 103.177 422.674 112.023 414.722C118.462 421.407 125.468 427.037 133.182 432.105C126.388 441.324 119.807 450.472 112.73 460.044Z" fill="#5757CA"/>
<path d="M571.506 438.931C562.801 445.757 554.451 452.443 545.818 459.269C538.529 449.276 531.452 439.564 524.446 429.923C530.674 424.434 536.83 419.015 543.129 413.525C552.328 421.759 561.811 430.204 571.506 438.931Z" fill="#5757CA"/>
<path d="M158.587 444.913C153.563 456.103 148.68 467.081 143.585 478.271C133.465 473.204 124.124 467.363 114.783 461.029C121.647 451.669 128.37 442.52 135.022 433.301C142.594 437.946 150.308 441.605 158.587 444.913Z" fill="#5757CA"/>
<path d="M329.769 456.103C344.063 456.103 358.146 456.103 372.44 456.103C372.44 478.13 372.44 500.087 372.44 522.255C358.287 524.085 344.134 524.93 329.769 525C329.769 501.917 329.769 479.115 329.769 456.103Z" fill="#7DB7FF"/>
<path d="M287.805 456.032C287.805 478.2 287.805 500.298 287.805 522.537C273.651 520.918 259.71 518.596 245.911 515.499C245.911 495.653 245.911 475.948 245.911 456.032C259.781 456.032 273.793 456.032 287.805 456.032Z" fill="#7DB7FF"/>
<path d="M415.042 514.655C401.879 517.822 388.505 520.214 374.988 521.974C374.988 500.017 374.988 478.2 374.988 456.243C388.292 456.243 401.596 456.243 415.042 456.243C415.042 475.596 415.042 494.95 415.042 514.655Z" fill="#7DB7FF"/>
<path d="M290.281 522.889C290.281 500.58 290.281 478.482 290.281 456.103C302.524 456.103 314.837 456.103 327.292 456.103C327.292 478.904 327.292 501.776 327.292 524.93C314.979 525 302.665 524.156 290.281 522.889Z" fill="#7DB7FF"/>
<path d="M655.717 260.881C632.506 260.881 609.649 260.881 586.438 260.881C586.438 247.44 586.438 234.068 586.438 220.486C607.95 220.486 629.746 220.486 651.896 220.486C654.585 233.646 655.647 247.158 655.717 260.881Z" fill="#F1A234"/>
<path d="M586.791 263.133C609.53 263.133 632.459 263.133 655.575 263.133C655.505 276.364 654.231 289.383 651.754 302.403C630.17 302.403 608.587 302.403 586.649 302.403C586.791 289.313 586.791 276.293 586.791 263.133Z" fill="#F1A234"/>
<path d="M640.219 343.291C621.254 341.813 602.43 340.335 583.323 338.787C584.597 327.456 588.701 316.619 586.862 305.007C608.374 305.007 629.675 305.007 651.329 305.007C648.852 318.026 644.96 330.623 640.219 343.291Z" fill="#F1A234"/>
<path d="M639.866 180.02C644.89 192.406 648.782 204.863 651.401 217.882C629.605 217.882 608.021 217.882 586.155 217.882C586.367 206.692 585.589 195.573 583.961 184.383C602.643 182.976 621.184 181.568 639.866 180.02Z" fill="#F1A234"/>
<path d="M620.83 381.293C605.12 376.508 589.693 371.793 574.195 367.078C577.097 358.351 579.998 349.765 583.041 340.968C601.582 342.376 620.264 343.854 639.3 345.332C634.205 357.999 627.977 369.752 620.83 381.293Z" fill="#F1A234"/>
<path d="M639.017 177.909C620.334 179.387 602.006 180.794 583.536 182.202C581.979 173.287 579.644 164.561 576.53 156.022C591.108 151.518 605.474 147.225 620.051 142.792C627.411 153.84 633.568 165.523 639.017 177.909Z" fill="#F1A234"/>
<path d="M598.538 411.133C586.579 403.814 574.69 396.635 562.73 389.316C566.976 382.912 570.232 376.156 573.062 368.978C588.489 373.693 603.916 378.338 619.414 383.123C613.257 393.117 606.251 402.336 598.538 411.133Z" fill="#F1A234"/>
<path d="M596.769 112.671C604.836 121.538 612.054 130.968 618.848 140.962C604.341 145.325 590.117 149.688 575.681 154.052C572.779 146.381 568.958 139.202 564.712 132.094C575.61 125.62 586.083 119.145 596.769 112.671Z" fill="#F1A234"/>
<path d="M544.686 412.048C550.488 405.01 556.079 398.184 561.74 391.287C573.416 398.395 585.093 405.573 597.194 412.892C589.693 421.548 581.767 429.501 572.992 437.312C563.439 428.797 554.027 420.422 544.686 412.048Z" fill="#F1A234"/>
<path d="M563.58 130.335C558.626 122.735 553.177 115.908 546.879 109.434C555.017 101.974 563.084 94.7955 571.081 87.4061C579.714 94.7955 587.569 102.537 595.354 111.052C584.739 117.456 574.265 123.79 563.58 130.335Z" fill="#F1A234"/>
<path d="M0.211914 247.017C1.41493 238.291 2.54719 229.635 3.75021 220.908C3.75021 220.767 3.89174 220.627 3.96251 220.345C25.1215 220.345 46.139 220.345 67.2272 220.345C67.2272 233.787 67.2272 247.158 67.2272 260.952C44.7237 260.952 22.5032 260.952 0.282682 260.952C0.211916 256.377 0.211914 251.662 0.211914 247.017Z" fill="#F1A234"/>
<path d="M0.211914 262.993C22.3616 262.993 44.6529 262.993 67.4395 262.993C67.4395 276.434 67.4395 289.594 67.4395 302.614C46.6344 302.614 25.4046 302.614 3.67944 302.614C2.47642 293.113 1.41493 283.894 0.211914 274.604C0.211914 270.734 0.211914 266.793 0.211914 262.993Z" fill="#F1A234"/>
<path d="M4.45801 304.866C25.1924 304.866 45.7853 304.866 66.3782 304.936C66.9443 304.936 67.935 305.71 67.935 306.203C67.8643 317.182 69.4211 327.949 71.7564 338.787C53.0742 340.265 34.6043 341.672 15.9221 343.15C10.8977 330.764 7.07635 318.097 4.45801 304.866Z" fill="#F1A234"/>
<path d="M67.2981 217.952C46.5637 217.952 25.6169 217.952 4.31641 217.952C6.93475 204.792 10.8976 192.265 15.922 180.09C34.1796 181.498 52.3665 182.905 70.4118 184.313C69.3503 195.643 68.3596 206.833 67.2981 217.952Z" fill="#F1A234"/>
<path d="M35.1706 380.519C28.094 369.189 21.9374 357.718 16.7715 345.191C35.3122 343.713 53.6405 342.306 72.1812 340.828C74.4457 349.625 77.064 358.21 80.6731 366.726C65.4584 371.3 50.3853 375.875 35.1706 380.519Z" fill="#F1A234"/>
<path d="M16.8418 177.909C22.3615 164.889 28.9428 152.855 36.6562 141.173C50.5971 146.451 64.6088 151.659 78.762 157.007C75.3652 165.171 72.5346 173.334 71.2608 182.131C53.1447 180.865 35.1702 179.387 16.8418 177.909Z" fill="#F1A234"/>
<path d="M81.5222 368.626C84.919 376.649 89.0942 383.968 93.6232 391.287C82.0884 398.254 70.7658 405.151 59.231 412.259C50.9513 402.969 43.5209 393.117 36.4443 382.42C51.3759 377.845 66.3076 373.271 81.5222 368.626Z" fill="#F1A234"/>
<path d="M37.7891 139.343C44.5826 129.35 51.7299 120.06 59.7973 111.193C70.4121 117.597 81.027 124.142 91.4296 130.476C87.3252 138.71 83.2915 146.733 79.1871 154.966C65.7416 149.829 51.8715 144.692 37.7891 139.343Z" fill="#F1A234"/>
<path d="M60.6465 413.877C72.1106 406.91 83.3623 400.013 94.8264 393.117C99.5677 400.154 104.592 406.769 110.607 413.033C101.761 421.056 92.9865 429.008 84.2115 437.101C75.7904 429.923 68.0769 422.041 60.6465 413.877Z" fill="#F1A234"/>
<path d="M92.9157 128.928C82.3009 122.383 71.8275 116.049 60.6465 109.222C68.5015 101.27 76.215 93.5991 83.9992 85.7875C92.6327 93.5991 100.417 100.848 108.343 108.096C102.681 114.641 97.374 121.397 92.9157 128.928Z" fill="#F1A234"/>
<path d="M329.77 0.211182C344.135 0.281557 358.217 1.12606 372.441 2.95582C372.441 23.5054 372.441 43.9143 372.441 64.5342C358.217 64.5342 344.135 64.5342 329.77 64.5342C329.77 43.2105 329.77 21.8868 329.77 0.211182Z" fill="#5757CA"/>
<path d="M184.062 26.9538C203.523 19.9163 223.196 14.1455 243.364 9.78223C243.364 28.0798 243.364 46.307 243.364 64.6046C225.531 65.1676 207.628 63.4786 189.724 66.7862C187.884 53.4853 185.973 40.3251 184.062 26.9538Z" fill="#5757CA"/>
<path d="M417.59 11.1897C437.05 15.8345 455.945 21.8867 474.556 29.1354C472.717 41.7326 471.018 54.4002 469.178 67.2788C452.124 63.2674 434.857 65.0268 417.59 64.5342C417.59 46.9404 417.59 29.2762 417.59 11.1897Z" fill="#5757CA"/>
<path d="M287.805 2.53357C287.805 23.2239 287.805 43.8439 287.805 64.6046C273.864 64.6046 259.923 64.6046 245.911 64.6046C245.911 46.1663 245.911 27.7983 245.911 9.2896C259.71 6.33384 273.581 4.08183 287.805 2.53357Z" fill="#5757CA"/>
<path d="M290.353 64.6749C290.353 43.9142 290.353 23.1535 290.353 2.04088C302.666 1.33713 314.908 0.703753 327.292 0C327.292 21.8164 327.292 43.1401 327.292 64.6749C314.838 64.6749 302.666 64.6749 290.353 64.6749Z" fill="#5757CA"/>
<path d="M415.113 64.5342C401.596 64.5342 388.292 64.5342 374.988 64.5342C374.988 44.055 374.988 23.7869 374.988 3.2373C388.575 4.99669 401.95 7.45982 415.113 10.5563C415.113 28.6428 415.113 46.5181 415.113 64.5342Z" fill="#5757CA"/>
<path d="M160.073 74.3867C155.402 63.9711 150.873 53.6963 146.132 43.14C157.808 37.2989 169.626 32.3726 181.869 27.7982C183.779 40.9584 185.548 53.9778 187.459 67.0677C178.047 68.8974 169.06 71.079 160.073 74.3867Z" fill="#5757CA"/>
<path d="M497.201 75.6535C488.85 72.3459 480.429 69.6716 471.513 67.8418C473.282 55.3854 475.051 42.929 476.82 30.191C488.426 34.8358 499.607 39.8325 510.646 45.6736C506.188 55.5262 501.73 65.5195 497.201 75.6535Z" fill="#5757CA"/>
<path d="M157.95 75.1608C149.245 78.4685 141.036 82.4095 133.181 87.4061C127.096 79.1018 121.08 70.8679 114.924 62.4933C124.336 55.8076 133.96 49.9664 144.079 44.4772C148.821 54.6112 153.421 64.886 157.95 75.1608Z" fill="#5757CA"/>
<path d="M131.412 88.4618C123.557 93.8103 116.41 99.5811 110.041 106.478C102.186 99.2292 94.3311 92.1917 86.4053 84.8726C94.8264 77.2721 103.814 70.3049 113.296 63.6193C119.241 71.9236 125.256 80.0871 131.412 88.4618Z" fill="#5757CA"/>
<path d="M499.254 76.5684C503.571 66.8566 507.958 57.1448 512.346 47.2922C522.607 52.3593 532.16 58.2708 541.643 64.6046C535.486 72.9792 529.4 81.2835 523.314 89.6582C515.672 84.38 507.604 80.3686 499.254 76.5684Z" fill="#5757CA"/>
<path d="M569.595 85.7171C561.316 93.2473 553.39 100.496 545.393 107.815C539.024 101.763 532.443 96.0623 525.013 90.9249C531.169 82.5502 537.184 74.2459 543.483 65.6602C552.258 72.3458 560.749 78.8907 569.595 85.7171Z" fill="#5757CA"/>
<path d="M329.769 0.211182C344.134 0.281557 358.216 1.12606 372.44 2.95582C372.44 23.5054 372.44 43.9143 372.44 64.5342C358.216 64.5342 344.134 64.5342 329.769 64.5342C329.769 43.2105 329.769 21.8868 329.769 0.211182Z" fill="#7DB7FF"/>
<path d="M287.805 2.53357C287.805 23.2239 287.805 43.8439 287.805 64.6046C273.864 64.6046 259.923 64.6046 245.911 64.6046C245.911 46.1663 245.911 27.7983 245.911 9.2896C259.71 6.33384 273.581 4.08183 287.805 2.53357Z" fill="#7DB7FF"/>
<path d="M290.352 64.6749C290.352 43.9142 290.352 23.1535 290.352 2.04088C302.665 1.33713 314.907 0.703753 327.291 0C327.291 21.8164 327.291 43.1401 327.291 64.6749C314.837 64.6749 302.665 64.6749 290.352 64.6749Z" fill="#7DB7FF"/>
<path d="M415.113 64.5342C401.596 64.5342 388.292 64.5342 374.988 64.5342C374.988 44.055 374.988 23.7869 374.988 3.2373C388.575 4.99669 401.95 7.45982 415.113 10.5563C415.113 28.6428 415.113 46.5181 415.113 64.5342Z" fill="#7DB7FF"/>
<path d="M116.763 294.38C116.763 300.432 116.763 306.273 116.763 312.396C105.794 312.396 94.8964 312.396 83.7861 312.396C83.7861 306.414 83.7861 300.573 83.7861 294.38C94.6841 294.38 105.582 294.38 116.763 294.38Z" fill="#E6CF00"/>
<path d="M116.693 273.83C116.693 279.812 116.693 285.583 116.693 291.565C105.653 291.565 94.6844 291.565 83.4326 291.565C83.4326 285.653 83.4326 279.812 83.4326 273.83C94.4013 273.83 105.441 273.83 116.693 273.83Z" fill="#E6CF00"/>
<path d="M117.754 331.327C107.352 332.946 97.0906 334.564 86.4049 336.253C85.485 329.145 84.565 322.178 83.7158 315.07C94.9676 315.07 105.795 315.07 116.764 315.07C117.047 320.419 117.33 325.627 117.754 331.327Z" fill="#E6CF00"/>
<path d="M83.0791 270.875C83.0791 265.104 83.0791 259.192 83.0791 253.21C94.0478 253.21 105.087 253.21 116.481 253.21C116.481 258.981 116.481 264.893 116.481 270.875C105.512 270.875 94.4016 270.875 83.0791 270.875Z" fill="#AA5824"/>
<path d="M83.0791 230.972C83.3622 225.06 83.6452 219.36 83.9283 213.448C94.4724 213.448 105.087 213.448 115.844 213.448C115.844 219.125 115.844 224.966 115.844 230.972C105.37 230.972 94.4016 230.972 83.0791 230.972Z" fill="#AA5824"/>
<path d="M83.0791 250.395C83.0791 244.765 83.0791 239.206 83.0791 233.576C94.1894 233.576 105.087 233.576 116.198 233.576C116.198 239.065 116.198 244.625 116.198 250.395C105.3 250.395 94.1894 250.395 83.0791 250.395Z" fill="#AA5824"/>
<path d="M115.419 190.717C105.936 189.521 96.5949 188.465 87.1123 187.269C88.4569 178.894 90.9337 171.012 94.5427 163.271C102.752 166.297 110.89 169.393 119.169 172.56C117.259 178.542 115.843 184.454 115.419 190.717Z" fill="#FFA47C"/>
<path d="M115.489 210.845C105.228 210.845 94.8965 210.845 84.0693 210.845C84.8478 203.807 85.6262 196.91 86.4046 189.732C96.0995 190.928 105.582 192.054 115.419 193.251C115.489 199.162 115.489 205.003 115.489 210.845Z" fill="#FFA47C"/>
<path d="M95.3213 160.737C99.0011 153.629 102.61 146.803 106.219 139.765C113.72 144.41 120.868 148.844 127.803 153.207C125.114 158.767 122.495 164.186 119.736 169.886C111.881 167.001 103.813 163.974 95.3213 160.737Z" fill="#FFA47C"/>
<path d="M131.059 372.637C134.951 378.056 138.701 383.194 142.594 388.542C136.791 393.961 130.776 399.521 124.548 405.362C119.595 399.099 114.641 392.906 109.546 386.501C116.976 381.857 124.124 377.212 131.059 372.637Z" fill="#DD41DD"/>
<path d="M157.738 401.984C153.633 408.529 149.529 415.074 145.283 421.759C138.348 417.607 132.191 412.822 126.601 407.121C132.616 401.562 138.489 396.143 144.434 390.583C148.75 394.313 153.138 398.043 157.738 401.984Z" fill="#DD41DD"/>
<path d="M194.678 439.775C186.044 438.298 177.977 436.116 169.839 433.231C172.882 426.404 175.925 419.648 178.897 412.892C184.841 414.722 190.573 416.411 196.588 418.241C195.881 425.278 195.244 432.456 194.678 439.775Z" fill="#DD41DD"/>
<path d="M176.419 412.118C173.447 418.804 170.404 425.56 167.361 432.456C160.426 429.923 153.916 426.897 147.547 423.167C151.722 416.481 155.826 410.007 159.931 403.462C165.38 406.277 170.758 409.092 176.419 412.118Z" fill="#DD41DD"/>
<path d="M240.108 78.1166C245.864 78.1166 251.596 78.1166 257.305 78.1166C257.305 86.5616 257.305 95.0067 257.305 103.522C251.643 103.522 245.911 103.522 240.108 103.522C240.108 95.077 240.108 86.7024 240.108 78.1166Z" fill="#BF4040"/>
<path d="M335.713 78.1166C335.713 86.7024 335.713 95.0067 335.713 103.452C329.981 103.452 324.178 103.452 318.446 103.452C318.446 95.0067 318.446 86.5616 318.446 78.1166C324.178 78.1166 329.84 78.1166 335.713 78.1166Z" fill="#BF4040"/>
<path d="M379.305 78.1166C386.027 78.1166 392.538 78.1166 399.261 78.1166C399.261 86.5616 399.261 95.0067 399.261 103.522C392.609 103.522 386.098 103.522 379.305 103.522C379.305 95.077 379.305 86.7024 379.305 78.1166Z" fill="#BF4040"/>
<path d="M401.879 78.1166C407.399 78.1166 412.848 78.1166 418.367 78.1166C418.367 86.5616 418.367 94.9363 418.367 103.452C412.848 103.452 407.469 103.452 401.879 103.452C401.879 95.077 401.879 86.7024 401.879 78.1166Z" fill="#BF4040"/>
<path d="M338.331 78.1166C345.054 78.1166 351.564 78.1166 358.146 78.1166C358.146 86.5616 358.146 95.0067 358.146 103.522C351.564 103.522 345.054 103.522 338.331 103.522C338.331 95.077 338.331 86.7727 338.331 78.1166Z" fill="#BF4040"/>
<path d="M237.419 103.452C230.838 103.452 224.398 103.452 217.888 103.452C217.888 95.1474 217.888 86.632 217.888 78.1166C224.304 78.1166 230.814 78.1166 237.419 78.1166C237.419 86.5616 237.419 94.9363 237.419 103.452Z" fill="#BF4040"/>
<path d="M376.615 78.187C376.615 86.5617 376.615 95.0067 376.615 103.452C371.379 103.452 366.213 103.452 360.905 103.452C360.905 95.0771 360.905 86.7728 360.905 78.187C366.048 78.187 371.284 78.187 376.615 78.187Z" fill="#BF4040"/>
<path d="M295.801 103.522C290.493 103.522 285.469 103.522 280.232 103.522C280.232 95.1474 280.232 86.7024 280.232 78.1166C285.328 78.1166 290.493 78.1166 295.801 78.1166C295.801 86.5616 295.801 95.0067 295.801 103.522Z" fill="#BF4040"/>
<path d="M439.738 103.381C433.582 103.381 427.496 103.381 421.269 103.381C421.269 94.9363 421.269 86.7024 421.269 78.187C427.354 78.187 433.511 78.187 439.738 78.187C439.738 86.6321 439.738 95.0067 439.738 103.381Z" fill="#BF4040"/>
<path d="M259.993 103.522C259.993 95.0771 259.993 86.7024 259.993 78.187C265.725 78.187 271.528 78.187 277.331 78.187C277.331 86.5382 277.331 94.9833 277.331 103.522C271.528 103.522 265.796 103.522 259.993 103.522Z" fill="#BF4040"/>
<path d="M315.615 103.522C309.883 103.522 304.363 103.522 298.561 103.522C298.561 95.077 298.561 86.632 298.561 78.1166C304.222 78.1166 309.812 78.1166 315.615 78.1166C315.615 86.7024 315.615 95.0067 315.615 103.522Z" fill="#BF4040"/>
<path d="M313.352 442.309C313.352 435.271 313.352 428.375 313.352 421.267C324.462 421.267 335.431 421.267 346.612 421.267C346.612 428.234 346.612 435.131 346.612 442.309C335.643 442.309 324.603 442.309 313.352 442.309Z" fill="#BF4040"/>
<path d="M401.03 442.591C401.03 435.201 401.03 428.093 401.03 420.774C406.762 420.774 412.494 420.774 418.297 420.774C418.297 428.023 418.297 435.201 418.297 442.591C412.636 442.591 406.904 442.591 401.03 442.591Z" fill="#BF4040"/>
<path d="M240.392 421.196C246.053 421.196 251.643 421.196 257.375 421.196C257.375 428.234 257.375 435.342 257.375 442.45C251.714 442.45 246.194 442.45 240.392 442.45C240.392 435.342 240.392 428.445 240.392 421.196Z" fill="#BF4040"/>
<path d="M420.986 420.563C427.284 420.563 433.512 420.563 439.81 420.563C439.81 427.882 439.81 435.201 439.81 442.661C433.512 442.661 427.355 442.661 420.986 442.661C420.986 435.483 420.986 428.234 420.986 420.563Z" fill="#BF4040"/>
<path d="M398.483 420.915C398.483 428.234 398.483 435.412 398.483 442.731C392.255 442.731 386.099 442.731 379.871 442.731C379.871 435.412 379.871 428.234 379.871 420.915C386.028 420.915 392.184 420.915 398.483 420.915Z" fill="#BF4040"/>
<path d="M259.994 442.379C259.994 435.342 259.994 428.304 259.994 421.196C266.151 421.196 272.307 421.196 278.535 421.196C278.535 428.234 278.535 435.271 278.535 442.379C272.307 442.379 266.222 442.379 259.994 442.379Z" fill="#BF4040"/>
<path d="M237.49 442.379C231.829 442.379 226.238 442.379 220.294 442.379C220.294 435.342 220.294 428.445 220.294 421.196C225.955 421.196 231.687 421.196 237.49 421.196" fill="#BF4040"/>
<path d="M281.365 442.45C281.365 435.342 281.365 428.304 281.365 421.196C285.965 421.196 290.352 421.196 294.952 421.196C294.952 428.234 294.952 435.342 294.952 442.45C290.423 442.45 285.894 442.45 281.365 442.45Z" fill="#BF4040"/>
<path d="M377.112 420.915C377.112 428.234 377.112 435.412 377.112 442.731C373.574 442.731 370.035 442.731 366.355 442.731C366.355 435.412 366.355 428.304 366.355 420.915C369.823 420.915 373.361 420.915 377.112 420.915Z" fill="#BF4040"/>
<path d="M349.583 420.844C354.324 420.844 358.712 420.844 363.382 420.844C363.382 428.164 363.382 435.342 363.382 442.661C358.783 442.661 354.254 442.661 349.583 442.661C349.583 435.412 349.583 428.164 349.583 420.844Z" fill="#BF4040"/>
<path d="M310.379 442.52C306.133 442.52 302.028 442.52 297.782 442.52C297.782 435.412 297.782 428.234 297.782 421.056C301.957 421.056 306.062 421.056 310.379 421.056C310.379 428.164 310.379 435.271 310.379 442.52Z" fill="#BF4040"/>
</svg>
